<mxfile host="Electron" modified="2023-08-29T18:29:51.053Z" agent="Mozilla/5.0 (Windows NT 10.0; Win64; x64) AppleWebKit/537.36 (KHTML, like Gecko) draw.io/21.6.8 Chrome/114.0.5735.289 Electron/25.5.0 Safari/537.36" etag="xKpfUU7k7ODDC_qfbeh7" version="21.6.8" type="device">
  <diagram name="Page-1" id="GNUfUvtjkXQuuYcMlEfn">
    <mxGraphModel dx="2074" dy="836" grid="1" gridSize="8" guides="1" tooltips="1" connect="1" arrows="1" fold="1" page="1" pageScale="1" pageWidth="850" pageHeight="1100" math="0" shadow="0">
      <root>
        <mxCell id="0" />
        <mxCell id="1" parent="0" />
        <mxCell id="2J4ZoAbfnpfpzhqiIDaw-1" value="&lt;b&gt;PartyAs&lt;/b&gt;" style="outlineConnect=0;dashed=0;verticalLabelPosition=bottom;verticalAlign=top;align=center;html=1;shape=mxgraph.aws3.users;fillColor=#D2D3D3;gradientColor=none;" parent="1" vertex="1">
          <mxGeometry x="120" y="360" width="110" height="90" as="geometry" />
        </mxCell>
        <mxCell id="2J4ZoAbfnpfpzhqiIDaw-2" value="&lt;b&gt;SYMMIO onchain contracts&lt;/b&gt;" style="sketch=0;points=[[0,0,0],[0.25,0,0],[0.5,0,0],[0.75,0,0],[1,0,0],[0,1,0],[0.25,1,0],[0.5,1,0],[0.75,1,0],[1,1,0],[0,0.25,0],[0,0.5,0],[0,0.75,0],[1,0.25,0],[1,0.5,0],[1,0.75,0]];outlineConnect=0;fontColor=#232F3E;gradientColor=#F78E04;gradientDirection=north;fillColor=#D05C17;strokeColor=#ffffff;dashed=0;verticalLabelPosition=bottom;verticalAlign=top;align=center;html=1;fontSize=12;fontStyle=0;aspect=fixed;shape=mxgraph.aws4.resourceIcon;resIcon=mxgraph.aws4.blockchain;" parent="1" vertex="1">
          <mxGeometry x="410" y="270" width="78" height="78" as="geometry" />
        </mxCell>
        <mxCell id="2J4ZoAbfnpfpzhqiIDaw-3" value="3rd party Frontend" style="shape=image;imageAspect=0;aspect=fixed;verticalLabelPosition=bottom;verticalAlign=top;image=data:image/png,iVBORw0KGgoAAAANSUhEUgAAAgAAAAIACAYAAAD0eNT6AAAABHNCSVQICAgIfAhkiAAAAAlwSFlzAAAOxAAADsQBlSsOGwAAABl0RVh0U29mdHdhcmUAd3d3Lmlua3NjYXBlLm9yZ5vuPBoAACAASURBVHic7d13fBVlosbxZ85JJaGG3qQqoqKgCyIgYEEFAnZXERug4q7KqrurrmjE3gtWsKwi9oooiiKCirAWBBRBUJEOFmpIPWfuH1EvYsKZk5yZd86Z3/fzyWfvhXdmnryGM0+mWgIABM6OOYNbKGSPsWUNktRGskole7FlWS9kh/WwddDrO0xnhLss0wEAAN7a/vHgYZaliZKyqxjyg6Kh43IOmTLfy1zwFgUAAAJkx9z8E2zZLyj25//WqMI9ax/82mIvcsF7IdMBAADe2PzBoPq27Ily9stfHUuRh9zOBHMoAAAQEGkZ1ihJ9Z2Ot6Q+Oz4e2MPFSDCIAgAAARGKakC8y9gKHelGFphHAQCAoLDUIv5lrFYuJIEPUAAAICBsKe5b+yxpmxtZYB4FAACCY0G8C0Qte6EbQWAeBQAAAsK27afjXGRrean9uithYBwFAAACIrfnG+9KetPpeFvWdfX6vLHJxUgwiAIAAAFSVmafLumLmANt64mcHq/f4X4imEIBAIAAqdfnjU21skt729I9kkr/NMDSj7LtC2od/PrZliXb+4Q1Vzpy7IHlo6550HQOv0szHQAA4C1r/+mFksZsmXPUuHQr/cio7DYhSyXRqL0kZ7M90xo4rcR0xpoIWxpky863pQssJWeJ8QLvAgAApJTyUVd/JOmQiOx9Myde95XpPH7FKQAAQMqwRxa0lNRdktKkEwzH8TUKAAAgZZRb9sX69fS2Letv9lkFWYYj+RYFAACQEuxz/lXbkj1ypz9qHEmLDjMWyOcoAACAlFAezr5KUr0//KGlq+1z/lXbTCJ/owAAAJJe6aiCAyzZ/6jkr1pHwtk3eh4oCXAXAAAgqdnnFtSK2tE5trR/FUOitqUj0ieMm+lpMJ/jCAAAIGnZBQWhiCKTdrPzl6SQZeuVknPH7udZsCRAAQAAJCVbsiJro/fKto53MLxu2Lam2OcUNHc9WJLgFAAAIOnYF16YGSluMEGyz4hz0TVRKzQkY0LB564ESyIUAABAUrHPvbJZxE57QVKvaq5im2wNT3tk3GuJzJVsKAAAgKRgS1Zk5NjhknWnLOUlYI1Tw3Z4tPVIweqaryv5UAAAAL5mFxSEIms0WIpeKalHgle/2bLt20Kh8ARrQsFPCV63r1EAAAC+VDJq7D5plgbZss6TrXYub65Y0mTbCj2flrPlA+uuu4pc3p5xFAAAgK+UjbrmNkv2MEnNDEUoluw54Uh4lPVYwXeGMrguzXQAAAB2llZefm8kLfS1ZB0h6QhJjTzadLmkjyxLM6J2eIZaa4VH2zWCIwAAAN+yTyrIiNSPDpWtMZIOcWkzW2zbeiItZN1hTShY6dI2fIcCkNxaSuorqYWk5pKyzcYBEABFktZKWiPp/V//1xNl5xYMsOzo/ZI6JGiVpbasW9Ms6yZrQsGOBK0zaVAAkk+WpPMlDZN0oPhvCMAcW9KnkiZLelgVF9K5u8GzCrLK0+3/WLKvkBSuwao+CluhkdaEgiWJypZs2HkklzMkXS+plekgALCLlZL+I+kpLzZWNurqoyzpOUl141/aeiy82RptvVBQmvBgSYQCkBwyJT0k6SzDOQAglqcljVTFqQJXlZw7dr+wbU1TxWlQRyzLviI84bqbXYyVNCgA/pcr6W25d/ELACTaR5KOlrTd7Q2VjBq7T1jWh5LqxRpry7o+feK1Y93OlCx4G6C/hVRxOI2dP4Bk0kvSJHmwj8mceN1XdkgnSirb/UjrybSJ117tdp5kQgHwt6slDTUdAgCq4VhJV3mxofSHx82wZF9f1d/b0jfh3K3nWxUXLeJXFAD/aiPpctMhAKAGrpC0hxcbCrUI32hZml/JX9myQ6OD8GjfeFEA/Ot6VVz8BwDJKkvSOC82ZBUUlEft0N8r+Zsn0h8peM+LDMmGAuBPeZJOMR0CABJgmKSGXmwofWLBHNmavdMf2WE7cqsX205GvAvAn/IVx3+bo1p10ICW7VUrLd3FSNJbq5brtRWxn5nRZO++ar7fEa5mAWBGpKxY6758Tz8u+9jpImFJAyU96V6qnVihO6TooZIkW1OtR67/2pPtJiEKgD8NdjIoLRTSU/2P14ntOrudR5L0U/EORwWgXsvOanvIXz1IBMCEDn3P0g/zXtLnz/1HdjTiZJHB8qgAhFtoamSN1klqJiv0iBfbTFacAvAnR8+5/tf+vTzb+QPAzvbocYL2PGyk0+Ed3cyyM6ugICpZ70gqDaeLc/+7QQHwp+ZOBp2zV1e3cwBAldr0dHykz9FnWsJY0bcle471QIHrDyJKZpwC8J+QHFwwE7Is7VE75oOvAMA1OQ1ayLJCsu1orKGNVPHZFnNgIoQzw1PLiyKrvNhWMqMA+E9IDh7RHLIsnuMMwCzLqviK/XgdSx4WAGt8wVZJH3ixrWTGKQAAAAKIAgAAQABRAAAACCAKAAAAAcRFgPClTasWad3Cd7Vj0xpFyktNxwGqLT0zR7WbdVSrroOVVbdxzVZm29qw5ANtXPqRirduVNTZQ3hiysxtoPqtu6hl14EKp2clZJ3wPwoAfCUaKdcXL1ytFXNfMB0FSKjFb96tA04s0B7dj6/W8qWFmzXvvxfqx2VzE5zsN5P19bR7dPA596teq31d2gb8hFMA8JVFr93Ezh8pKVJapM+fuUIbvp4de/CubFtzH7vAxZ1/hR2b1urDh85R8ZaNrm4H/kABgG8U/rxa33042XQMwDW2HdWiKfG/nG7dlzP007efuJDoz0oLN2npjIc92RbMogDANzYu/dDpi0WApLV13VIVbV4f1zLrl1TjqEENVOsoBZIOBQC+Ubpji+kIgCdKCzfHNb7M438bpYWbPN0ezKAAwDdy8lqajgC4zgqFVatBfO/GqdXA238bOXmtPd0ezKAAwDea7H2o0mvVNR0DcFXTvfsqPbtOXMu06ja44pn7Hml1YL5n24I5FAD4RnpWbR1wwtWeftABXsrIqacux18V93J1W+ytjv1HuJDozxq06ap2vYd5si2YRQGAr7Q6cIh6nDVe2XWbmI4CJFRe227qe/HzyslrVa3l98v/l/Yb8m+lZeYkOFkFywppj+7Hq/foxxVKy3BlG/AXHgQE32mx/1Fqvt8R+uWHBSressF0HKBGrFBYtZu0V+0m7Wu4IksdDxupdr2H6ecV8xN6YWAoPVP1W+2nrDqNErZO+B8FAL5khcLKa9vNdAzAd8IZ2Wq85yGmYyAFcAoAAIAAogAAABBAFAAAAAKIAgAAQABRAAAACCAKAAAAAUQBAAAggCgAAAAEEA8CSlKRaFR/nfGip9tcsvknR+PWLpyu7T+ucDcMAF+w7ajpCKgm3rriP2mSykyHAIAES5dUbjoE/h+nAAAACCAKAAAAAUQBAAAggLgIcDeu/2JwizSrfIwte5Bkt5GsUkmLZdkvlJRmPlxw0Os7XNgs12UASEV8tvkM/0GqcNPCAcNka6JkZVcx5AfZoeOuOGDa/ARvmosAAaQiLgL0GQpAJW5acNQJkl5QrPmxtNUuD/W8stu0xQncPAUAQCqiAPgM1wDs4qaFg+pLmign5chWHSscfcj1UAAAJBgFYBe2ykdJqh/HIn1uXDCgh1t5AABwAxcB7iJka4Ad7zJW6EhJ89zIU5VwOKyJ/53s5SYB4E9GnTVMkUjEdAxUAwVgF7bUIu5lomrlRpbdsSxLQ4870evNAsAfnHv26aYjoJo4BbALS4r/1j7L3uZCFAAAXEMB2JWtBfEuYkkL3YgCAIBbKAC7sEN6Oq4FLG21rbTXXYoDAIArKAC7uKLL2+9K9ptOx9u2fd0VXd7Y5GYmAAASjQJQGSv9dEv6wsHAJ67oMv0O9wMBAJBYFIBKXNHljU1h2b0l3SOptJIhP1qyL7i8y1tnW5bivWsQAADjeBRwDHd+dVSDkjL7SIWsNratEktaklMrNPOijtNKXNqko0cBp6WlacPmYpciAIAzTeplqbzc0RN+eRSwz1AA/IcCACBpUACSF6cAAAAIIAoAAAABRAEAACCAeBcA/mBHYaGWL1+m9evWqqgo/qciA/CX7OxaatqsuTp06KhaOTmm48BHKACQJE2bOkWTnnhU78+coZJiLi4EUk1Wdrb69T9cw88coaMH5ZuOAx/gLgD/8fQugOXLluqi0aM0b+6cGq8LQHLoeUhv3fPABLXvsGeN18VdAMmLawACbOaMdzSgXy92/kDAfDznQw3o10vvv/eu6SgwiCMA/uPJEYAF8z/XoKP6qWgH5/mBoMrMytLUt2aq20F/qfY6OAKQvDgCEECbNv2iU08ays4fCLiS4mKdcdqJ2rJls+koMIACEEB33XazNqxfZzoGAB9Yt3aN7rnjVtMxYACnAPzH1VMAmzb9on06tuZKfwC/y8rO1uLlq1S3br24l+UUQPLiCEDAvP3mVHb+AP6guKhI099603QMeIwCEDCzZs4wHQGAD3FHQPDwIKCAWbN6laNxHdvkaf/OzV1OA8Bt8+av1Kp1W2KOW71qpQdp4CcUgIDZsGGDo3HP3XeauuzdzOU0ANy2YPE6HZg/Pua4jQ4/G5A6OAUQMBFnF+soJyfT5SQAvJCTk+FoXFlZzGuPkWIoAAAABFBQTgHkSuot6RBJnSTtKamFpBxJ2QZzAUBQ+PEQQ5GkQklrJC2VtETSHEkf/vrnKS2VC0BdSSdKOl1SL1XcgwoAwG+yf/1qKGn/nf68TBUl4ClJL0ra6n0096XiKYA2ku6XtE7SI5L6iZ0/AMC5dEn9JT2qin3JfZJaG03kglQqAA0kPSTpG0kXiEP7AICaqyXpb5KWq+KXy/pm4yROqhSAM1Rx7uY88ds+ACDx0lXxy+USVZxaTnrJXgByVXGO5glJjQxnAQCkvsaSJkl6UhX7oKSVzAWgtaR5koaZDgIACJzhkj6W1NJ0kOpK1gLQWdJHv/4vAAAm7KuKfdHepoNURzIWgI6SZiqJWxcAIGW0VsU+qYPpIPFKtgLQXNLbqjgHAwCAHzSR9JakpqaDxCOZHgSUrooHMrSt7grqt+6iJp16q0GbrqrdpL2y6jRSOD0rcQkTwI5G9MolnUzHAICEOu7OJbJCYdMx/iBSVqzirT9q24Zv9cv387VhyQfatGpRdVfXXtILqnh+gLOXrhiWTAXgBkk9410onJ6lNj1PVrvep6t242p3BwBAigmnZyknr5Vy8lqpaed+6jzoH9q28Xt998EkrZj7vCJlJfGusrekcZKuTHzaxEuWAtBL0mXxLtSy6yB1OfZKZdXljAEAILbajdtq/xOu1p6Hn6uFr9ygNQveincV/5Y0RdLcxKdLrGS4BiBN0gOSLMcLZOao+xl3qfuZd7PzBwDELbteU/U4e7z+MvxOpWXWimfRkCr2Wf4631GJZCgA50rq4nRwVp1G6nvRs2rZbbCLkQAAQdDqwHwdeuEzyqzdMJ7Fukoa4VKkhPF7AUhXxeEURzJzG6jP355S3RZcRAcASIx6LTvr0L9PVkZOXK8BuEI+fzS93wvA6XL4BqZQOF09Rz6s2k3auRwJABA0tZu0U8+RDykUdnzpXBtJp7qXqOb8XgBGOR24z+BL1aDNAW5mAQAEWF7bbuo88JJ4FjnXrSyJ4Oe7ADpIOtjJwHqt9lWHvmfFtfLykkJtWbtEJdt+lh2NVCOeO+xo1HQEAEi4NV+8JSvkn985rVBYmbXzVLd5J6Vl5jhermP/c7R6/lRtXr3YyfBDVPF8gG+rGdNVfi4AJ8vhlf/7Dfm34wdMbFq5UEvevl8bln6oaHlpTfIBABz635NjTEeoVCgtQ0069VGno/6m+q32izneCoW175B/68MHznSyekvSiZJuqWFMV/injv3ZYU4GNdhjfzXqGPtAgR2NaNGUWzTzrhO17qv32PkDABQtL9W6L2do5p0n6Msptzg6Itx4z0NUv7Xjm9MOr1FAF/m1AGSq4tBJTG0OPin2INvWZ0//W8vee0Sy7RpGAwCkHNvWN+89os+e/rej/YSjfU+FXpIyahLNLX4tAJ0kZccaZFkhNd//6JgrWzbrca389LVE5AIApLCVn76m5bOfjDmueZcBsixHu9BakvaqaS43+LUAOJqsui06KaNW3d2OKS3cpCVv3ZeQUACA1Pf1W/eqtHDzbsdk5jZQneZ7Ol0lBSAOHZ0Mqteic8wxKz95VWXF22ocCAAQDGVFWx0dNXayD/qVo32a1/xaABw9bimnUZuYY9Z9NbOmWQAAAbP+q/dijsl1sA/6VYOaZHGLXwtAbSeDYh3+l6TCn1fWOAwAIFi2//RDzDEZteo5XV1ujcK4xK8FIOYFgFLFu5xjKd3+S43DAACCxcm+I5zhaFclSc6fNOQhvz4IyNmrf63Yw2yHt/11OPJYxw8TcpNt21o+/WXTMQAgoToMOF6Wg89st9nRiJa/82rscU72Hc6/H/PfeCX8WgA8d/Qt/1ValuM255popFz37kcBAJBaBt4xKZ4X6bimvLhI973j+NB9SvPrKQAAAOAiCgAAAAFEAQAAIIAoAAAABBAFIGgcXrVaVhb7jVgA/C8ScXYnlB+u0Ie3zF+SCU/lNczT998tjzmu4O53dcLR+8ZxlwsAv7Ft6dXpXzkam9cwz+U08BsKQMA0adrM0bgX31ykF99c5HIaAH7RrFkL0xHgMU4BBEz3Hj1NRwDgQz16HmI6AjxGAQiYQflDTUcA4ENHD8w3HQEeowAETNt2HXTUMYNMxwDgI8cMHqI2bduZjgGPUQAC6OpxNyk9Pd10DAA+kJ6erquvvcF0DBhAAQigTnt31g233mk6BgAfuPG2u7TnXnubjgEDKAABNWLUaI259N+mYwAw6B//vELnjDzfdAwYQgEIsLHX3qD7HnpUtXJ8+apqAC7JycnVAxMe11XXXGc6CgyiAATcqaefqc8WLtXZI89TTk6u6TgAXJSbW1sjRo3WZ4uW6pTThpuOA8N4EBDUuElT3X73/brh5js0e9ZMLVowXxs2bNCPGzeYjgaghho1bqKmTZtqv/27qs+h/ZSZlWU6EnyCAoDfZWZl6cijjtGRRx1jOgoAwGWcAgAAIIAoAAAABBAFAACAAKIAAAAQQBQAAAACiAIAAEAAUQAAAAggCgAAAAFEAQAAIIB4EiD+YEdhoZYvX6b169aqqGiH6TieyM6upabNmqtDh46evxiJ+Wa+3WZyvuFvFABIkqZNnaJJTzyq92fOUElxsek4RmRlZ6tf/8M1/MwROnpQvqvbYr6Zb695Od9IDpwCCLjly5Zq4BGH6vS/Hq+3p70R2A9HSSouKtJbb07VsFOO0+AB/fTt8m8Svg3m+/8x397yYr6RXCgAATZzxjsa0K+X5s2dYzqK73w850MN6NdL77/3bsLWyXxX7eM5H+rIvocw3x5xY76RfCgAAbVg/ucafuoJ2rJls+kovrV58yaddvKx+vzTT2q8roVfzGe+Y9iyZbNOO/lYffbJ/2q8LuY7tkTON5ITBSCANm36RaeeNFRFO4JxEVRNlBQX64zTTqzRjmTz5k3Mt0O/zffmzZuqvQ7m27lEzDeSFwUggO667WZtWL/OdIyksW7tGt1zx63VXv6u227W+nVrE5gota1ft5b59lBN5xvJiwIQMJs2/aJHJjxgOkbSefjB8dU6CrB58yZNfPh+FxKltocfHF+t30qZ7+qp7nwjuVEAAubtN6cG+kro6iouKtL0t96Meznmu3pKiouZbw9Vd76R3CgAATNr5gzTEZJWda6Yfp/5rjbm21vcERA8PAgoYNasXuVoXMe6DbR/XlOX0/jDvA2rtapwa8xxq1etjHvdTue73h4d1KjT/nGvPxmtXzBP29avjjnOzfnu0CpHXfasE/f6k9H/vtys1RuKYo6rznwjuVEAAmbDhg2Oxj13+EnqktfE5TT+sODn9Trw5Qkxx210OHfVWWbQ3c+o0V5d4l5/MvpxyQJNPr57zHFuzvdTNx6o/ToGowAs/Garep4xO+a46sw3khunAAImUl7uaFxOeobLSfzD6fdaVlYW97rLHc53Rq3cuNedrNIdfq/lLs53Tq3g/O6TUyvsaFx15hvJjQIAAEAAUQAAAAggCgAAAAFEAQAAIIAoAAAABBAFAACAAKIAAAAQQBQAAAACiAIAAEAAUQAAAAggCgAAAAFEAQAAIIAoAAAABBAFAACAAKIAAAAQQBQAAAACiAIAAEAAUQAAAAggCgAAAAFEAQAAIIAoAAAABBAFIGgsy9GwsmjE5SD+EbFtR+Msh3NXnWUiZWVxrztZ2RGHP1suznd5eTTudSeraMTZz3d15hvJLc10AHgrr2Gevv9uecxxBZ+9rxPadlaqfyTYkl5d8bWjsXkN8+Jef17DPH337bKY4z4ef606HnV8tUpGMrFtW9+++5qjsW7O93UTlurYw5rJSvGfcFu2Xn9/vaOx1ZlvJDcKQMA0adrM0bgXv1usF79b7HKa5NKsWYu4l2nSxNl8L3v7JS17+6W415/K3Jzvl2es08sz1sW9/lRWnflGcuMUQMB079HTdISk1aPnIXEv0/1g5ru6mG9vVWe+kdwoAAEzKH+o6QhJ6+iB+XEvM5D5rrZjBg2Jexnmu/qqM99IbhSAgGnbroOOOmaQ6RhJ55jBQ9Smbbu4l2vbtr2OHjjYhUSpjfn2VnXnG8mNAhBAV4+7Senp6aZjJI309HRdfe0N1V7+6nE3Mt9xYL69VdP5RvKiAARQp70764Zb7zQdI2nceNtd2nOvvau9/F6dOuuOex5IYKLUxnx7q6bzjeRFAQioEaNGa8yl/zYdw/f+8c8rdM7I82u8nmFnnK0xl12egESpjfn2VqLmG8mJAhBgY6+9Qfc99Khq5eSYjuI7OTm5emDC47rqmusSts6xBdfr/ocfU05ObsLWmSqYb2+5Md9IPhSAgDv19DP12cKlOnvkeXxQSsrNra0Ro0brs0VLdcppwxO+/r8OO0OfLlyic0aez3yL+faa2/ON5MKDgKDGTZrq9rvv1w0336HZs2Zq0YL52rBhg37cuMF0NE80atxETZs21X77d1WfQ/spMyvL1e01btJUt919n66/+Xbmm/l2ndfzjeRBAcDvMrOydORRx+jIo44xHSUQmG9vMd/AH3EKAACAAKIAAAAQQBQAAAACiAIAAEAAUQAAAAggCgAAAAFEAQAAIIAoAAAABBAFAACAAKIAAAAQQBQAAAACiHcBYLfKysr0ykvP64NZM1W4fbvpOAmRk5urQ/sdpmOPP0np6emm4/xBKs/3cSecrLQ0f33kMN8IMn46UKVVK3/QaScN1eKvvjQdJeGenvRfjb/rNj39wmtq2aq16TiSUn++77v7dk1+/lXm2wN+nG/4D6cAUKnS0lL99YT8lPxw/M1XXy7SqScOUVlZmekogZjvLxctZL495Kf5hj9RAFCpF56drCVfLzYdw3WLv/pSLz73tOkYzLfHmG+AAoAqzJo5w3QEz7z/3rumIzDfHmO+AQoAqrB16xbTETzjh+/VDxm84ofv1Q8ZvBKk7xXxoQCgUm3atjcdwTNt23UwHYH59hjzDVAAUIVTTj1dlmWZjuE6y7J0yqmnm47BfHuM+QYoAKhC1wMP0t8uusR0DNddOOYy7d+1m+kYzLfHmG+AAoDdKLj+Zt14652qX7+B6SgJV79+A918+9265rqbTEf5HfPtLeYbQceDgFAly7J03gUX6eyR52vRgi+0ft1alUfKTceqkbRwmpo2a64uB3T13VMAmW9vMd8IOgoAYsrIyNCBf+luOkZgMN/eYr4RVJwCAAAggCgAAAAEEAUAAIAAogAAABBAFAAAAAKIAgAAQABRAAAACCAKAAAAAUQBAAAggHgSIGKa/9mnmvX+DG3dkhrvFa9br5769jtcB3Q70HSUSjHf3mK+EVQUAFRp69YtuuDcszVt6hTTUVwxMH+o7n/4MdWpU9d0FEmpP9+Dhhyr+x9+TLVr1zEdRRLzDXAKAJWybVtnnHpiyn44StKbr7+ms4adLNu2TUcJxHy/MeVVnXnaScy3R/w03/AnCgAq9cbrr+qDWTNNx3DdrJkzfLETYL69xXwDFABUYdobr5uO4Jlpb5r/XplvjzMw3wAFAJX76ceNpiN4ZuOG9aYjMN8eY74BCgCq0LxFS9MRPNOiZSvTEZhvjzHfAAUAVRhy7AmmI3hm6HEnmo7AfHuM+QYoAKhC/8OPDMSH5HEnnKy+/Q83HYP59hjzDVAAsBsPPfqkRowarXA4bDpKwoXDYY0872+6f8LjpqP8jvn2FvONoONBQKhSZmambr1rvC665J+a8+FsrV+/LunvKbYsS02bNlOvPn19d26U+fYW842gowAgppatWuvkU083HSMwmG9vMd8IKk4BAAAQQBQAAAACiAIAAEAAUQAAAAggCgAAAAFEAQAAIIAoAAAABBAFAACAAKIAAAAQQDwJEDH9/PNPmjfnI/2YIu9Qb9SosXoc0kt5eQ1NR6lUKs73wb16q0GDPNNRKsV8I6goAKhSeXm5brh2rB66/x6VlpaajpNQGRkZGv33Mbry6nFKS/PHP4NUn+8LLvyHrhh7LfPtAT/ON/yHnwxU6aILRum5pyeZjuGK0tJS3XPnrdq4cYPue+hR03Ekpf58333HLdq4cYPGP/iI6TiSmG+AawBQqQ9nv5+yH447e+apJzTnow9MxwjMfD896b/Mt4f8Mt/wJwoAKvXKS8+bjuCZV154znQE5tvrDMw3QAFA5VavWmk6gmdWrfrBdATm22PMN0ABQBUa+PQKeTfkNWxkOgLz7THmG6AAoAoDjh5oOoJn/PC9+iGDV/zwvfohg1eC9L0iPhQAVGrIsSeoe4+epmO47uCevZQ/9HjTMZhvjzHfAAUAVQiHw3rq+Vd0aL/DTEdxTb/DjtCk515WKGT+nwHz7S3mG+A5ANiNvLyGtGJ+cAAAGphJREFUemXqdH0wa6Zmvf+efvn5J9OREqJBXkP163+4eh/az3SUP2C+vcV8I+goAIipT9/+6tO3v+kYgcF8e4v5RlBxbAgAgACiAAAAEEAUAAAAAogCAABAAFEAAAAIIAoAAAABRAEAACCAKAAAAAQQBQAAgADiSYCIKRqNavmypdq4YYMikYjpODUSDofVuEkTdei4l2+fkc58e4v5RlBRALBbk598XDddX6B1a9eYjpJQzZq30JVjr9Vpw88yHeUPUnm+/3P1OJ16+pmmo/wB840goyKiSrfcOE4XXTAq5T4cJWnd2jW6cPRI3XbTdaaj/C7V5/vv549gvj3ix/mG/1AAUKlFCxfo9puvNx3DdbfedJ2++nKR6RjMt8eYb4ACgCo8O/lJRaNR0zFcF41G9ezkJ03HYL49xnwDFABU4btvl5mO4Jnly5aajsB8e4z5BigAqEJOTq7pCJ7Jza1tOgLz7THmG6AAoAq9D+1nOoJn+vTtbzoC8+0x5hugAKAKpw47Q+3adzQdw3UdOu6lU04bbjoG8+0x5hugAKAKmVlZeu7lKSn9Idm+w5569qXXlJmZaToK8+0x5hvgQUDYjXbtO+qDuZ/rmclPatbMGdq6dYvpSAlRp05d9e1/uE47/UxlZmWZjvM75ttbzDeCjgKA3crKztbZI8/T2SPPMx0lEJhvbzHfCDJOAQAAEEAUAAAAAogCAABAAFEAAAAIIAoAAAABRAEAACCAKAAAAAQQBQAAgACiAAAAEEAUAAAAAogCAABAAFEAAAAIIAoAAAABRAEAACCAKAAAAAQQBQAAgACiAAAAEEAUAAAAAogCAABAAFEAfMaSJVlWzHG2bcu2bQ8SAUDlHH8OWVbFZxt8hQLgM1Y4rKy6DWKOi0Qi2rB+nQeJAKBy69auUSQSiTkuq24DWeGwB4kQDwqAD+U0aupo3HPPPOVyEgCo2nNPT3I0LrdJc5eToDooAD5Ut2VbR+Nuvek6ffTBLJfTAMCffTBrpm675QZHY51+psFbaaYD4M/a9j1a382cGnNccVGRjs8/SieecpqOGHC0GjTI8yAdgCD75Zef9c7b0/TS88+ovLzc0TJt+hzlcipUBwXAh9ofPlTvjbtIdjQac2x5ebmenfyknp38pAfJACA+Viikdoflm46BSnAKwIdq5TVWu36DTMcAgBprf1i+cho2MR0DlaAA+FTvS29UKMwBGgDJywqHdcjF15qOgSpQAHyqfts91eXU80zHAIBqO2DYBWrQfm/TMVAFCoCPHfqvW9SqR1/TMQAgbs279VLvS280HQO7QQHwsVBaugbe+bQatOtkOgoAONag/d7KH/+8wukZpqNgNygAPpddv6H++tyHatd/sOkoABBTm94DdMrT7yu7fkPTURADBSAJZOTUVv69z6v3pTcqs3Y903EA4E8y69RXn3/erKEPvsrnVJLgMvMkYYXDOmjEpdr3hLP06aN3aOkbz2nb+tWmYwEIuNpNW2qvwX/VQSMudfQeE/gHBSDJZNXLU+9Lb1TvS27QxsXztep/s7R9/WoV/rhexVt+MR0PQIrLqttAOY2aKrdpK7Xqfqgad+7q6A2m8B8KQLKyLDXep5sa79PNdBIAQBLiGgAAAAKIAgAAQABRAAAACCAKAAAAAUQBAAAggCgAAAAEEAUAAIAAogAAABBAFAAAAAKIAgAAQABRAAAACCAKAAAAAUQBAAAggCgAAAAEEAUAAIAAogAAABBAFAAAAAKIAgAAQABRAAAACCAKAAAAAZRmOoBfPJl/gKyQZToGAMBFdtQ2HcE3KAC/2rpmhekIAAB4hlMAAAAEEAUAAIAAogAAABBAFAAAAAKIAgAAQABRAAAACCAKAAAAAUQBAAAggHgQ0K8WvT1GmZnmp+OYMx/Xtz/8HHNc79GPK6fhHh4kAoDUESkr0bs3H2M6hi+Y3+P5RJuW9ZWdlW46hjLSw47GZddrppy8Vi6nAYDUEikrNh3BNzgFAABAAFEAAAAIIAoAAAABRAEAACCAKAAAAAQQBQAAgACiAAAAEEAUAAAAAogCAABAAFmmA1RhkqTTYw3KzM1TWmat3Y4p/GW1ZNsxN9i2ZX1ZlvnpWLV+i8rKIjHHZddrqlDY/JMLASCp2HbFfiEWy1JOg5a7HVJeskMl22M/ul3SU5KGOxnopaR+FHDJ9p+dTn5M36/elJD1eKVo83rTEQAgddm2Cn9eZTqFq/x6CsCvuQAAiJf5w8uV8OuOlrfcAABSRWvTASrj1wLQ2HQAAAASxJf7NL8WgAzTAQAASBBf7tP8WgAAAICL/FoAoqYDAACQICWmA1TGrwVgm+kAAAAkyEbTASrj1wLwg+kAAAAkiC8fKODXBwE5OgJw/c2365hBQ9zOAgDAn0x7Y4quuvwyJ0NjP47WAL8WAEfyGjZSm7btTMcAAARQXsNGpiPUiF9PAQAAABdRAAAACCAKAAAAAUQBAAAggCgAAAAEEAUAAIAAogAAABBASf0cAADObN68SdOmTtHsWTO1+MuFWvH999q+veJ5W7m5tdW2XTt13reLDu3bX0cPyle9evUNJwbgNgoAkMKWfL1Y99xxi1575UWVlFT+PpLt27dp0cIFWrRwgZ57epIyMzM19PiTNObSf2mvTp09TgzAK5wCAFLQjsJC/fvSi3XowV31/LOTq9z5V6akpETPP/OU+vToqiv++Q8V7djhYlIAplAAgBSzbu0a5R9zmB55+H5FIpFqrycSiWjCg+N19OG9tWol7+cCUg0FAEghX3z+mQ7r00NffP5Zwtb55aKFGtC/lxbM/zxh6wRgHgUASBHr163VsFOO08YN6xO+7o0b1uuUE/K1ZrUv32oKoBooAEAKKC4q0rBTjtP6dWtd28aPGzdo2MnHakdhoWvbAOAdCgCQAq6/dmxCD/tXZdHCBRp3zX9c3w4A91EAgCS38ocVemzig55t77GJD2rJ14s92x4Ad1AAgCR38w3XxnWbX01FIhHdddtNnm0PgDsoAEAS+/nnn/TKi885Hp+Vla3hI/+mSa++q9kLV2j2whV68pV3NGzEaGVlZTtez5RXX9Ivv/xcncgAfIICACSxN19/TaWlpY7Gtmi1h554+W1dcOmV6rDX3kpPT1d6ero6duqsv192lR5/cZqat2ztaF2lpaWaNnVKTaIDMIwCACSxD2bNdDQuu1aO7nx4klq3bV/lmDbtO+rOhyc5PhLgdNsA/IkCACSxLxctdDTupNPP2e3O/zd7tOugk04/x9E6Fy38wtE4AP5EAQCS2IoV3zkad/SQ4x2v0+nYFSu+d7xOAP5DAQCSVElJiUqKi2OOC4XD2qNN7N/+f9OmXUeFwuGY44qLihxffwDAfygAQLKybdMJACQxCgCQpDKzspSZmRlzXDQS0eqVKxyvd+WK7xR18BbBzKwsZWRkOF4vAH+hAABJrPUebR2Ne3vqK47XOf0NZ2PbtGnneJ0A/IcCACSxfffr4mjcc08+ojWrfog5bvXKFXr2iUccrXOfffdzNA6AP1EAgCTW+9B+jsYVbt+mS84brrWrV1Y5Zs3KH3TpecNVtMPZ2/769O3vaBwAf6IAAEls8JBjlZaW5mjsyu+/1ZnHD9BjD9z1h2sCVq9coUfvv1NnnnCUVjq8rTA9PV0D84dWJzIAn3D2yQHAlxo2aqxjBg3R66+97Gj89m3bNHH87Zo4/nal/3oBX1k1buUbOHioGjZsFPdyAPzDr0cAnN3fxG1QgC755xUKheL/p1xWWlqtnX8oFNIl/7oy7uWAlON8H+TLnZVfC4Cjk5CFhc7OVQKprMsBXXXa8LM8294ZZ490fPEhkMq2bd/mdOh2N3NUl18LgKNZ/eXnn9zOASSFG265Q3t33sf17bRt217XXHeT69sBksEvPzneBzluCl7yawFw9KLx5cuXuZ0DSAq5ubU16dmXVL9+A9e2UadOXT3xzIuqU6eua9sAksm3zvdBvvxt1a8FwNGsfvH5Z27nAJJG23Yd9NTzr7hSAmrXrqPJL7zKvf/ATj7/7FOnQ79xM0d1+bUALHEyaNk3S7R+3Vq3swBJ4+CevfTOrDnac6+9E7bONm3baer093VIrz4JWyeQ7NasXqVvlzvery91M0t1+bUAfCNpa6xBtm3r1Zdf8CAOkDzatuugt2d+qNOGnyXLsqq9nlAopNPPPEczP/qEi/6AXbzy0vNOh26Rw6PaXvNrASiXNNvJwCcff1Q2twMCf1CnTl2Nf/ARvTtrrgbmD1XYwet9fxMOhzVoyLGaMXue7rl/Auf8gV1Eo1FNfvK/TofPkhT77VoGVP/XA/eNkXSXk4FPPP2CBg85zuU4QPLasH6dpk55RbPfn6mvFi3UypUrFPn1jX/hcFitW7fRvl32V59+/ZU/5Dg1btLUcGLAv1575UWdM/yvTodfLOleF+NUm58LQHNJKyXF/NWlbdv2+uiTBcrMynI/FZAitm7dIsuyVLt2HdNRgKRRXFSkXt3314rvHT02OyKplaR17qaqHufHBb23TVJvSe1jDdy8eZNKS0vV77Aj3E8FpIjMzCxlZmaajgEklYKxV+jd6dOcDp8u6SEX49SInwuAVPH0pFOcDPxk3sfar8sB6rjnXi5HAgAE0dQpr+iqyy+LZ5HL5NM7ACR/nwKQKi5SXCjJ0SPOsmvV0ktT3lKPgw9xNxUAIFDmfvyRThhytIqLipwuskjS/vLpewAk/94F8JuopOudDi7asUMnDR2o996d7mIkAECQvDv9LZ107MB4dv6SNE4+3vlL/j8FIElfSeonqY2TwWVlpXrlxeeUFg6rR89eNboPGgAQXNFoVHfccoMuuWi0SktK4ll0hqTLXYqVMMmyd9xH0ueSMuJZ6MC/dNetd4zXAd0OdCcVACAlff7pJ/rXpRdqvvPH/f6mRNIBcvhEW5OSpQBIcTwXYGeWZWnA0QM14twL1O+wI+J6IAoAIDgikYhmznhHj054QO+8Pa26D5m7UNJ9CY7mimQqAJakVyQNre4KGjZqrH79D1f3g3uq456d1LRZM+Xm1latnJzEpQQA+N6OwkJt375N69et07Jvlmjex3M06/339NOPG2uy2pcknZigiK5LpgIgSbUlzZTEMX0AgJ98Kqm/Km5fTwrJVgAkqbGkDyV1NB0EAABVvMCut6QfTQeJh99vA6zMRkmHSvrCdBAAQOB9KekwJdnOX0rOAiBJ61Vxa+AMwzkAAME1XVIvSWtMB6mOZL4kvkTSU5KKVHHeJVnLDAAgudiSbpU0QlKx4SzVlozXAFSmj6QH5fCRwQAAVNOXkkar4lq0pJbMRwB2tlLSRFW8QbCbpFpm4wAAUsxPksaq4rf+FWajJEaqHAHYWa6k8yVdpIr3MAMAUF0rJd0j6WFJhYazJFQqFoDfhFRxoeAwSUdLam40DQAgWayR9JYqrjObrYoX06WcVC4Au9pL0iGSOknaU1JLVRwtyJXEowBRXZlycMopIyNTmVlZHsRJfiXFxSotdfTilR2quBgYqI5CVTy0Z7uk1ZKWquL5/XNUcV9/ygtSAQDccJEqDg/u1snDR+gfV47zIE7yu+vGq/X8pEedDL1Y0r0uxwFSFrfOAQAQQBQAAAACiAIAAEAAUQAAAAggCgAAAAFEAQAAIIAoAAAABBAFAACAAKIAAAAQQBQAAAACKM10gFRjjyhoELGiR1qW3UqyyqKh0NK0jJ9nWuPH88xyAIBvUAASxB5+WU55Zs6NESt6vqQM+9fXLFjRqCLF9X+KjBp7TWjidQ9akm02KQAAnAJICHv05fWj2bU+sCz7IkkZlQxpaMu6PzLqmsdsXsAEAPABCkACRMozJtu2usYeaZ8VHTX2UvcTAQCwexSAGiobVXCEpGOcjrdlXW2Pvry+i5EA4A/sBQNydszNn2Q6B/yFAlBDlhU9Lc5FakfK0vNdCQMAldhRnNlfsofanx6YbjoL/IMCUEOWdEC8y9hWaH83sgBApezoYFuqvT3SvI/pKPAPCkANRW1lx7uMZSnXjSwAsKvNHwyqL1nDJClk2xeazgP/oADUkGVrTfzLRFe5kQUAdpWeFrpA+v2XjiFb5+R3MpkH/kEBqCErZE+Pd5mIpXfcyAIAOyv6aOAesuzLd/qjUChsP2Tb3I4MCkCNhcJlEyX94ngBW7MzJlw3z71EACDZz58UtkOhR6U/nnK0bPXdMXfQ+YZiwUcoADVkPXjzJknnytkT/jaFw9GRLkcCABW2LrrTtnR4pX9phe7ZPjd/gMeR4DMUgARImzjuJUnDJe3YzbAV0ah9uPXw9cs8ihWXMfPteqYzAKg525ZVODd/nCVdtJtR6ZbsF4rmDeKugACjACRI2sRxk8PhyJ62rNtt6WtJxZK2ytbHlqVLwrnbOmc8et180zl3duGi4vYXLy55ZszikkJllm4as7hky5jFJY/+fUlhc9PZAMTPntkvq2ju4Kcke6yD4XWist7ZPm/Qma4Hgy/xMqAEsh66YY2kf/765WuXfFXa1bbsGba081MJ60g6Jy2adsyFi4r7jN8v61tT+QDEp2hOft8dIftBSXs7XshWpiXrv4UfDz4xlG79Lfug11e6lxB+wxGAACqYaadFLfuZXXb+O2uWFrae9DQUgLjZtqztc4ccWTg3f2o0ZL+veHb+O7M02C63v9w+N/+u4o+OaZ/QkPAtjgAE0JamJYfJtvba3RhbOmTMV6UH3L1Pxhde5QLgTOHHg/Nl2YN2zLMGWIq2TcQ6bam2JXtMJBy+qHDu4HmS9W5UoWdrH/za4kSsH/7DEYBg2s/JINtSF7eDAKgmKxSVFHFhzbZkR2XbURfWDR/hCEAARW0r28lTQEK2arkeBkDccnpOfV3S65K0bV7+YSHbvlhSvlSjB/xstWRPsOz0+7N7vroiATHhcxQAAEhitXu8/p6k94rmDeoTtfWQZHWOeyW2plrh8AW1ur/GY8oDhFMAAJACsnu88UGtX6LdLGmS44Usldi2Ts/pOTWfnX/wcAQghRXMtNO2NC05zJb2tW3r9/eAW5Kjh39ELXvAxYtL6v7/cnaJLPuLep2yZhdYFucHAZ+xBk4rsW2duWPeoO8l6+oYw7eGbGtQds/XP/QkHHyHApCiLvmqtOtmq/SZ3672r86JQUs6ThVf//8ntqXNX5d+ftHi4r/e2znLl081BILMsmRLb1yzfe7gupZ0cRWjymxZJ2YfPIWdf4BxCiAFXbiouL1t2TMk7fZWvxroFpI187IF2xq7tH4ANZSzMvtSSe9W+peWfVHuwVN4K2nAUQBSUChsXb+bh/wkSotIRuZ/XN4GgGqyTn4hEopER1rStj/8ufR+re5THzaVC/5BAUgxBbYdsqQhXmzLtu3jYo8CYEp2rzd/sC375p3+KFoeDp1fcZoAQUcBSDE/L1eu5Nn9+0082g6AairNSH9A0vaK/896tc5fpiw1Ggi+UZOHRsCPbNsa83XpZlW82Mflbem7u/fJNPHc8LCkwyUdKekgVVzrUFfeFR8E2w5JWyQtlfSJpOmSZsqdp/IlROHHgx+UpfOjlnX4r88NADgCkHIsy5b0ojeb0gtebGcnGaq4qnmlpLclXSapn6RmYucP79RSxc9cP1W8+fMdST9IulAVP6P+E7LesKRtueG1H5iOAv+gAKSg8lD5WEnrXN7MMrsk4+bYwxLmOElLJN0tqbmH2wWcaCHpXkmLJQ01nOVPamWVzJSlKdZBn5WZzgL/4BRAirpwUXH7tLD1pC0d4sLqp5eHys++r1POWhfWvStL0jWSrhY/r0gOtqRbJV0piQdmwbf4QE1xl3xV2jViab+Qpazf/sy27YFy8luKpcmWrNn/v5yKIrb92fh9Mr16PWiapOf1h4cRAUnjZUmnSCo3HQSoDAUggC5eXHKVJV0Xa5xlW6Pv2ifjIS8yVeF+SRcY3D5QU+MlXWQ6BFAZrgGAX40WO38kvwslnWs6BFAZCgD8qJmk20yHABLkDklNTYcAdkUBCKCQ7EIn46Kyt7udpQrXSMoxtG0g0XJVcREr4CsUgACyLXu+k3FR6XO3s1SiraQRBrYLuGmkpDamQwA743XAAVSvU9bsTV+XzrekrrsZNt3Dq/13dqbi+Lk8/MijdO7oC3XgX7qrfv0GLsYCKmza9Is+++R/eviBe/Xeu9OdLpYuabgcXHwLeIW7AALqkq+L94za1nuqeIDJrpaXh8r7enSf/64+k9TNycAbbrlD5/+titedAx548L67ddXllzkd/omk7i7GAeLCKYCAunPvrG/sSNmBlmXdK2mVpDLZ+s6SblFJxl8M7fxzJR3gZOCIcy9g5w/jRv99jM4a4fgi/27i2hb4CEcA4CcHSvo01qD09HR9uWylGjZs5EEkYPd++nGj9unYWuXljp73002So2twALdxBAB+4uhWqa7dDmLnD99o2KixDuh2oNPh3A4I36AAwE+ynQxq1KSJ2zmAuDRu4ni/zlsr4RsUAPhJkZNBP27Y4HYOIC4bN6x3OnSHmzmAeFAA4CeOPkXnf/6pfvrpR7ezAI789ONGffH5Z06HO24KgNsoAPCTpZIisQaVlZXp1hu5nRr+cNP1BU4vAIxI+sbdNIBzYdMBgJ2UShoiqXmsgfM/+0R169bVQd0Pdj8VUIUHxt+lu2672enwTyU94GIcIC4UAPhNM0n9nAx8793p+vR/c9WgQZ4a5OUpK8vRNYRAjWzevEkfzp6lf11yoR6bGNfbsh+SNNulWEDceA4A/KatKg6T8phqpJIySR0l/WA6CPAbrgGA33wv6RHTIYAEmyB2/vAZjgDAjxpLWi6ptukgQAJsV8Vv/9wBAF/hGgD4UaGkTZIGmw4CJMDfxbl/+BAFAH71qSqOBPzFdBCgBu6TdL3pEEBlKADws3ck7Stpb9NBgGp4WdJISVHTQYDKUADgZ1FJz//6f/cV16wgOdiSbpV0vhw82AoAsHvHSfpWFR+ufPHl16/lkoYKAJBQGZIulrRW5j/o+eJr5681ki5Sxc8okBQ4pIpkFJbUX9IAVVwkuJekenL4OmGghookbVbFuyv+J2m6pPfF4X4kmf8D8Z4h+WZzZhIAAAAASUVORK5CYII=;fontStyle=1" parent="1" vertex="1">
          <mxGeometry x="390" y="430" width="130" height="130" as="geometry" />
        </mxCell>
        <mxCell id="2J4ZoAbfnpfpzhqiIDaw-4" value="&lt;b&gt;Hedger &lt;br&gt;(PartyB)&lt;/b&gt;" style="image;aspect=fixed;html=1;points=[];align=center;fontSize=12;image=img/lib/azure2/identity/Users.svg;" parent="1" vertex="1">
          <mxGeometry x="650" y="370" width="64" height="70" as="geometry" />
        </mxCell>
        <mxCell id="2J4ZoAbfnpfpzhqiIDaw-5" value="" style="endArrow=classic;html=1;rounded=0;entryX=0;entryY=0.5;entryDx=0;entryDy=0;entryPerimeter=0;" parent="1" source="2J4ZoAbfnpfpzhqiIDaw-1" target="2J4ZoAbfnpfpzhqiIDaw-2" edge="1">
          <mxGeometry width="50" height="50" relative="1" as="geometry">
            <mxPoint x="230" y="370" as="sourcePoint" />
            <mxPoint x="280" y="320" as="targetPoint" />
          </mxGeometry>
        </mxCell>
        <mxCell id="2J4ZoAbfnpfpzhqiIDaw-6" value="Direct Intent/Request&amp;nbsp;" style="edgeLabel;html=1;align=center;verticalAlign=middle;resizable=0;points=[];rotation=0;" parent="2J4ZoAbfnpfpzhqiIDaw-5" vertex="1" connectable="0">
          <mxGeometry x="-0.0988" relative="1" as="geometry">
            <mxPoint x="12" as="offset" />
          </mxGeometry>
        </mxCell>
        <mxCell id="2J4ZoAbfnpfpzhqiIDaw-7" value="" style="endArrow=classic;html=1;rounded=0;entryX=0;entryY=0.75;entryDx=0;entryDy=0;exitX=1;exitY=0.745;exitDx=0;exitDy=0;exitPerimeter=0;" parent="1" source="2J4ZoAbfnpfpzhqiIDaw-1" target="2J4ZoAbfnpfpzhqiIDaw-3" edge="1">
          <mxGeometry width="50" height="50" relative="1" as="geometry">
            <mxPoint x="160" y="501" as="sourcePoint" />
            <mxPoint x="340" y="440" as="targetPoint" />
          </mxGeometry>
        </mxCell>
        <mxCell id="2J4ZoAbfnpfpzhqiIDaw-8" value="Request" style="edgeLabel;html=1;align=center;verticalAlign=middle;resizable=0;points=[];rotation=0;" parent="2J4ZoAbfnpfpzhqiIDaw-7" vertex="1" connectable="0">
          <mxGeometry x="-0.0988" relative="1" as="geometry">
            <mxPoint x="12" y="-2" as="offset" />
          </mxGeometry>
        </mxCell>
        <mxCell id="2J4ZoAbfnpfpzhqiIDaw-9" value="" style="endArrow=classic;html=1;rounded=0;" parent="1" edge="1">
          <mxGeometry width="50" height="50" relative="1" as="geometry">
            <mxPoint x="440" y="430" as="sourcePoint" />
            <mxPoint x="440" y="370" as="targetPoint" />
          </mxGeometry>
        </mxCell>
        <mxCell id="2J4ZoAbfnpfpzhqiIDaw-10" value="Request" style="edgeLabel;html=1;align=center;verticalAlign=middle;resizable=0;points=[];" parent="2J4ZoAbfnpfpzhqiIDaw-9" vertex="1" connectable="0">
          <mxGeometry x="0.1111" relative="1" as="geometry">
            <mxPoint as="offset" />
          </mxGeometry>
        </mxCell>
        <mxCell id="2J4ZoAbfnpfpzhqiIDaw-11" value="" style="endArrow=classic;html=1;rounded=0;entryX=0.045;entryY=0.003;entryDx=0;entryDy=0;entryPerimeter=0;exitX=1;exitY=0.75;exitDx=0;exitDy=0;exitPerimeter=0;" parent="1" target="2J4ZoAbfnpfpzhqiIDaw-4" edge="1">
          <mxGeometry width="50" height="50" relative="1" as="geometry">
            <mxPoint x="488.96000000000004" y="288" as="sourcePoint" />
            <mxPoint x="650.0000000000002" y="367.0200000000001" as="targetPoint" />
          </mxGeometry>
        </mxCell>
        <mxCell id="2J4ZoAbfnpfpzhqiIDaw-12" value="pull PartyA intents/requests&amp;nbsp;" style="edgeLabel;html=1;align=center;verticalAlign=middle;resizable=0;points=[];" parent="2J4ZoAbfnpfpzhqiIDaw-11" vertex="1" connectable="0">
          <mxGeometry x="0.0329" y="2" relative="1" as="geometry">
            <mxPoint x="-6" y="-16" as="offset" />
          </mxGeometry>
        </mxCell>
        <mxCell id="2J4ZoAbfnpfpzhqiIDaw-13" value="" style="endArrow=classic;html=1;rounded=0;" parent="1" edge="1">
          <mxGeometry width="50" height="50" relative="1" as="geometry">
            <mxPoint x="648" y="400" as="sourcePoint" />
            <mxPoint x="488" y="320" as="targetPoint" />
          </mxGeometry>
        </mxCell>
        <mxCell id="2J4ZoAbfnpfpzhqiIDaw-14" value="response" style="edgeLabel;html=1;align=center;verticalAlign=middle;resizable=0;points=[];" parent="2J4ZoAbfnpfpzhqiIDaw-13" vertex="1" connectable="0">
          <mxGeometry x="0.0329" y="2" relative="1" as="geometry">
            <mxPoint x="12" y="6" as="offset" />
          </mxGeometry>
        </mxCell>
        <mxCell id="2J4ZoAbfnpfpzhqiIDaw-15" value="" style="endArrow=classic;html=1;rounded=0;entryX=0.75;entryY=0;entryDx=0;entryDy=0;" parent="1" target="2J4ZoAbfnpfpzhqiIDaw-3" edge="1">
          <mxGeometry width="50" height="50" relative="1" as="geometry">
            <mxPoint x="488" y="370" as="sourcePoint" />
            <mxPoint x="450" y="380" as="targetPoint" />
          </mxGeometry>
        </mxCell>
        <mxCell id="2J4ZoAbfnpfpzhqiIDaw-16" value="Hedger response" style="edgeLabel;html=1;align=center;verticalAlign=middle;resizable=0;points=[];" parent="2J4ZoAbfnpfpzhqiIDaw-15" vertex="1" connectable="0">
          <mxGeometry x="0.1111" relative="1" as="geometry">
            <mxPoint x="12" y="7" as="offset" />
          </mxGeometry>
        </mxCell>
        <mxCell id="2J4ZoAbfnpfpzhqiIDaw-19" value="" style="endArrow=none;dashed=1;html=1;rounded=0;entryX=-0.003;entryY=1.02;entryDx=0;entryDy=0;entryPerimeter=0;exitX=1;exitY=0.5;exitDx=0;exitDy=0;" parent="1" source="2J4ZoAbfnpfpzhqiIDaw-3" target="2J4ZoAbfnpfpzhqiIDaw-4" edge="1">
          <mxGeometry width="50" height="50" relative="1" as="geometry">
            <mxPoint x="360" y="430" as="sourcePoint" />
            <mxPoint x="410" y="380" as="targetPoint" />
          </mxGeometry>
        </mxCell>
        <mxCell id="2J4ZoAbfnpfpzhqiIDaw-20" value="Quote/Notification &lt;br&gt;WebSocket" style="edgeLabel;html=1;align=center;verticalAlign=middle;resizable=0;points=[];" parent="2J4ZoAbfnpfpzhqiIDaw-19" vertex="1" connectable="0">
          <mxGeometry x="0.1453" y="-2" relative="1" as="geometry">
            <mxPoint x="-11" y="6" as="offset" />
          </mxGeometry>
        </mxCell>
      </root>
    </mxGraphModel>
  </diagram>
</mxfile>
